{
    "asset" : {
        "generator" : "Khronos glTF Blender I/O v1.6.16",
        "version" : "2.0"
    },
    "scene" : 0,
    "scenes" : [
        {
            "name" : "Scene",
            "nodes" : [
                0,
                1,
                2,
                3,
                4,
                5,
                6,
                7,
                8,
                9,
                10,
                11
            ]
        }
    ],
    "nodes" : [
        {
            "mesh" : 0,
            "name" : "Tank",
            "rotation" : [
                0,
                -0.07855863869190216,
                0,
                0.996909499168396
            ],
            "translation" : [
                -1.0100818872451782,
                0,
                -0.06355346739292145
            ]
        },
        {
            "name" : "Light",
            "rotation" : [
                -0.23414044082164764,
                -0.06886482983827591,
                -0.3848257064819336,
                0.890137791633606
            ],
            "translation" : [
                4.076245307922363,
                5.903861999511719,
                -1.0054539442062378
            ]
        },
        {
            "name" : "Camera",
            "rotation" : [
                -0.5733078122138977,
                0.2870948016643524,
                -0.25059106945991516,
                -0.7253267168998718
            ],
            "translation" : [
                -9.761884689331055,
                4.065197944641113,
                5.363561153411865
            ]
        },
        {
            "name" : "Empty.001",
            "rotation" : [
                0.5,
                0.5,
                -0.5,
                0.4999999701976776
            ]
        },
        {
            "name" : "Empty",
            "rotation" : [
                0.7071068286895752,
                0,
                0,
                0.7071067094802856
            ]
        },
        {
            "mesh" : 1,
            "name" : "Hangar"
        },
        {
            "mesh" : 2,
            "name" : "Crate",
            "rotation" : [
                0,
                0.15987089276313782,
                0,
                0.9871379137039185
            ],
            "scale" : [
                1.495042085647583,
                1.495042085647583,
                1.495042085647583
            ],
            "translation" : [
                -4.731910228729248,
                0.37376075983047485,
                4.137699127197266
            ]
        },
        {
            "mesh" : 2,
            "name" : "Crate.001",
            "rotation" : [
                0,
                -0.05628016218543053,
                0,
                0.9984151124954224
            ],
            "scale" : [
                1.495042085647583,
                1.495042085647583,
                1.495042085647583
            ],
            "translation" : [
                -3.8411355018615723,
                0.37376052141189575,
                4.431943893432617
            ]
        },
        {
            "mesh" : 2,
            "name" : "Crate.002",
            "rotation" : [
                0,
                -0.158844456076622,
                0,
                0.9873037338256836
            ],
            "scale" : [
                1.495042085647583,
                1.495042085647583,
                1.495042085647583
            ],
            "translation" : [
                -4.29028844833374,
                1.1684008836746216,
                4.201127052307129
            ]
        },
        {
            "mesh" : 2,
            "name" : "Crate.003",
            "rotation" : [
                0,
                -0.45492467284202576,
                0,
                0.8905299305915833
            ],
            "scale" : [
                1.495042085647583,
                1.495042085647583,
                1.495042085647583
            ],
            "translation" : [
                -3.420055866241455,
                0.37376075983047485,
                2.196096897125244
            ]
        },
        {
            "mesh" : 2,
            "name" : "Crate.004",
            "rotation" : [
                0,
                -0.8372848033905029,
                0,
                0.546766996383667
            ],
            "scale" : [
                1.495042085647583,
                1.495042085647583,
                1.495042085647583
            ],
            "translation" : [
                1.1273930072784424,
                0.37376028299331665,
                1.8294272422790527
            ]
        },
        {
            "mesh" : 0,
            "name" : "Tank.001",
            "rotation" : [
                0,
                -0.025028178468346596,
                0,
                0.9996868371963501
            ],
            "translation" : [
                -8.273016929626465,
                -0.02842090278863907,
                0.322440505027771
            ]
        }
    ],
    "materials" : [
        {
            "doubleSided" : true,
            "name" : "Tank Material",
            "pbrMetallicRoughness" : {}
        },
        {
            "alphaCutoff" : 0.5,
            "alphaMode" : "MASK",
            "doubleSided" : true,
            "emissiveFactor" : [
                1,
                1,
                1
            ],
            "emissiveTexture" : {
                "index" : 0
            },
            "name" : "Shed",
            "pbrMetallicRoughness" : {}
        }
    ],
    "meshes" : [
        {
            "name" : "tankMesh",
            "primitives" : [
                {
                    "attributes" : {
                        "POSITION" : 0,
                        "NORMAL" : 1,
                        "TEXCOORD_0" : 2
                    },
                    "indices" : 3,
                    "material" : 0
                }
            ]
        },
        {
            "name" : "hangarMesh",
            "primitives" : [
                {
                    "attributes" : {
                        "POSITION" : 4,
                        "NORMAL" : 5,
                        "TEXCOORD_0" : 6
                    },
                    "indices" : 7,
                    "material" : 1
                }
            ]
        },
        {
            "name" : "crateMesh",
            "primitives" : [
                {
                    "attributes" : {
                        "POSITION" : 8,
                        "NORMAL" : 9,
                        "TEXCOORD_0" : 10
                    },
                    "indices" : 11,
                    "material" : 1
                }
            ]
        }
    ],
    "textures" : [
        {
            "sampler" : 0,
            "source" : 0
        }
    ],
    "images" : [
        {
            "bufferView" : 8,
            "mimeType" : "image/png",
            "name" : "Shed"
        }
    ],
    "accessors" : [
        {
            "bufferView" : 0,
            "componentType" : 5126,
            "count" : 257,
            "max" : [
                1.2490776777267456,
                2.5924758911132812,
                2.931204319000244
            ],
            "min" : [
                -1.2467567920684814,
                0.02842090278863907,
                -3.048290252685547
            ],
            "type" : "VEC3"
        },
        {
            "bufferView" : 1,
            "componentType" : 5126,
            "count" : 257,
            "type" : "VEC3"
        },
        {
            "bufferView" : 2,
            "componentType" : 5126,
            "count" : 257,
            "type" : "VEC2"
        },
        {
            "bufferView" : 3,
            "componentType" : 5123,
            "count" : 606,
            "type" : "SCALAR"
        },
        {
            "bufferView" : 4,
            "componentType" : 5126,
            "count" : 967,
            "max" : [
                2,
                6,
                6.000000476837158
            ],
            "min" : [
                -10.000000953674316,
                -2.86102294921875e-06,
                -4
            ],
            "type" : "VEC3"
        },
        {
            "bufferView" : 5,
            "componentType" : 5126,
            "count" : 967,
            "type" : "VEC3"
        },
        {
            "bufferView" : 6,
            "componentType" : 5126,
            "count" : 967,
            "type" : "VEC2"
        },
        {
            "bufferView" : 7,
            "componentType" : 5123,
            "count" : 1476,
            "type" : "SCALAR"
        },
        {
            "bufferView" : 9,
            "componentType" : 5126,
            "count" : 24,
            "max" : [
                0.25,
                0.25,
                0.25
            ],
            "min" : [
                -0.25,
                -0.25,
                -0.25
            ],
            "type" : "VEC3"
        },
        {
            "bufferView" : 10,
            "componentType" : 5126,
            "count" : 24,
            "type" : "VEC3"
        },
        {
            "bufferView" : 11,
            "componentType" : 5126,
            "count" : 24,
            "type" : "VEC2"
        },
        {
            "bufferView" : 12,
            "componentType" : 5123,
            "count" : 36,
            "type" : "SCALAR"
        }
    ],
    "bufferViews" : [
        {
            "buffer" : 0,
            "byteLength" : 3084,
            "byteOffset" : 0
        },
        {
            "buffer" : 0,
            "byteLength" : 3084,
            "byteOffset" : 3084
        },
        {
            "buffer" : 0,
            "byteLength" : 2056,
            "byteOffset" : 6168
        },
        {
            "buffer" : 0,
            "byteLength" : 1212,
            "byteOffset" : 8224
        },
        {
            "buffer" : 0,
            "byteLength" : 11604,
            "byteOffset" : 9436
        },
        {
            "buffer" : 0,
            "byteLength" : 11604,
            "byteOffset" : 21040
        },
        {
            "buffer" : 0,
            "byteLength" : 7736,
            "byteOffset" : 32644
        },
        {
            "buffer" : 0,
            "byteLength" : 2952,
            "byteOffset" : 40380
        },
        {
            "buffer" : 0,
            "byteLength" : 89910,
            "byteOffset" : 43332
        },
        {
            "buffer" : 0,
            "byteLength" : 288,
            "byteOffset" : 133244
        },
        {
            "buffer" : 0,
            "byteLength" : 288,
            "byteOffset" : 133532
        },
        {
            "buffer" : 0,
            "byteLength" : 192,
            "byteOffset" : 133820
        },
        {
            "buffer" : 0,
            "byteLength" : 72,
            "byteOffset" : 134012
        }
    ],
    "samplers" : [
        {
            "magFilter" : 9728,
            "minFilter" : 9984
        }
    ],
    "buffers" : [
        {
            "byteLength" : 134084,
            "uri" : "data:application/octet-stream;base64,"
        }
    ]
}
